<svg xmlns="http://www.w3.org/2000/svg" width="64" height="64" fill="none"><rect width="64" height="64" fill="#FEED02" rx="4"/><path fill="#191A1B" fill-rule="evenodd" d="M17.91 31.156c.536.458.854 1.094.954 1.908h-5.9c.085-.784.403-1.413.954-1.885.55-.473 1.205-.709 1.963-.709.816 0 1.492.23 2.028.687h.001v-.001Zm-4.894-1.874a4.876 4.876 0 0 0-1.888 2.006c-.45.864-.676 1.871-.676 3.019 0 1.147.233 2.128.697 2.986a4.91 4.91 0 0 0 1.975 1.994c.85.473 1.849.71 2.994.71 1.316 0 2.414-.364 3.294-1.09a4.534 4.534 0 0 0 1.62-2.792h-2.318c-.158.626-.48 1.11-.966 1.45-.487.34-1.087.512-1.803.512-.9 0-1.624-.284-2.167-.85-.544-.567-.844-1.337-.901-2.311v-.13h8.284c.043-.305.065-.604.065-.895-.015-1.075-.254-2.012-.72-2.812a4.822 4.822 0 0 0-1.91-1.853c-.808-.436-1.742-.654-2.8-.654-1.059 0-1.972.236-2.78.708v.002Zm-3.37 8.469v2.115H1.245v-2.092h2.8c.145 0 .263-.12.263-.267v-8.906a.266.266 0 0 0-.263-.267H1v-2.05h5.668v11.2c0 .147.118.267.263.267h2.715Zm19.75-9.047h-.516c-2.034 0-2.631.886-3.082 1.553l-.072.106c-.106.155-.345.077-.345-.11v-1.548h-2.06v11.162h2.318v-5.603c0-2.3.073-3.478 2.726-3.435.258.004 1.031.033 1.031.033v-2.158Zm6.671-4.041c.519.72.364 1.733-.346 2.259-.71.527-1.705.37-2.223-.351a1.633 1.633 0 0 1 .345-2.26 1.575 1.575 0 0 1 2.224.352Zm2.563 13.088v2.115h-7.271v-2.092h2.236c.144 0 .263-.12.263-.267v-6.48a.266.266 0 0 0-.263-.267h-2.203v-2.05h4.826v8.775c0 .148.118.267.263.267h2.149Zm8.809-.761c.586-.683.88-1.57.88-2.66 0-1.091-.294-2.007-.88-2.704-.587-.698-1.36-1.047-2.318-1.047-.957 0-1.73.345-2.317 1.035-.587.69-.88 1.58-.88 2.67 0 1.092.293 2.004.88 2.694.586.69 1.36 1.035 2.317 1.035.959 0 1.732-.34 2.318-1.024v.001Zm3.177-8.284V39.87h-2.297v-1.414c0-.18-.227-.258-.334-.113l-.047.064c-.451.61-1.177 1.593-3.204 1.593-1.002 0-1.895-.229-2.682-.687-.788-.458-1.402-1.12-1.847-1.984-.443-.864-.664-1.879-.664-3.041s.225-2.134.675-2.998c.451-.865 1.07-1.533 1.857-2.007.786-.472 1.673-.708 2.661-.708 2.092 0 2.759.91 3.226 1.547l.024.033c.107.145.335.07.335-.111v-1.337h2.298-.001Zm11.15 1.076c.822.815 1.234 2.123 1.234 3.925v6.148h-2.339v-6.018c0-1.06-.222-1.868-.665-2.42-.443-.552-1.095-.828-1.952-.828-.915 0-1.634.325-2.156.97-.522.647-.783 1.538-.783 2.67v5.626h-2.318V28.693h2.275v1.45c0 .185.23.264.34.117.49-.66 1.523-1.697 3.18-1.697 1.301 0 2.364.408 3.186 1.222v-.003h-.002Z" clip-rule="evenodd"/></svg>